<mxfile host="app.diagrams.net" modified="2023-07-11T02:34:25.775Z" agent="Mozilla/5.0 (Windows NT 10.0; Win64; x64) AppleWebKit/537.36 (KHTML, like Gecko) Chrome/114.0.0.0 Safari/537.36" etag="H9xUMcc0is_iAhv7XBOz" version="21.6.1" type="github">
  <diagram name="페이지-1" id="MJqBXNljjiqDno5Xd0MY">
    <mxGraphModel dx="1313" dy="716" grid="1" gridSize="10" guides="1" tooltips="1" connect="1" arrows="1" fold="1" page="1" pageScale="1" pageWidth="827" pageHeight="1169" math="0" shadow="0">
      <root>
        <mxCell id="0" />
        <mxCell id="1" parent="0" />
        <mxCell id="dP87Y0F9Zu5sztYK6QaM-3" value="교수" style="rounded=1;whiteSpace=wrap;html=1;fillColor=#fff2cc;fontSize=14;strokeColor=#d6b656;" vertex="1" parent="1">
          <mxGeometry x="285" y="165" width="120" height="60" as="geometry" />
        </mxCell>
        <mxCell id="dP87Y0F9Zu5sztYK6QaM-6" value="학과" style="rounded=1;whiteSpace=wrap;html=1;fillColor=#fff2cc;strokeColor=#d6b656;fontSize=14;" vertex="1" parent="1">
          <mxGeometry x="690" y="165" width="120" height="60" as="geometry" />
        </mxCell>
        <mxCell id="dP87Y0F9Zu5sztYK6QaM-10" value="소속" style="rhombus;whiteSpace=wrap;html=1;fillColor=#f8cecc;strokeColor=#b85450;fontSize=14;rounded=1;" vertex="1" parent="1">
          <mxGeometry x="500" y="155" width="110" height="80" as="geometry" />
        </mxCell>
        <mxCell id="dP87Y0F9Zu5sztYK6QaM-16" value="" style="endArrow=none;html=1;rounded=1;exitX=1;exitY=0.5;exitDx=0;exitDy=0;entryX=0;entryY=0.5;entryDx=0;entryDy=0;fontSize=14;" edge="1" parent="1" source="dP87Y0F9Zu5sztYK6QaM-3" target="dP87Y0F9Zu5sztYK6QaM-10">
          <mxGeometry relative="1" as="geometry">
            <mxPoint x="254" y="209.5" as="sourcePoint" />
            <mxPoint x="414" y="209.5" as="targetPoint" />
          </mxGeometry>
        </mxCell>
        <mxCell id="dP87Y0F9Zu5sztYK6QaM-17" value="N" style="resizable=0;html=1;whiteSpace=wrap;align=right;verticalAlign=bottom;fontSize=14;rounded=1;" connectable="0" vertex="1" parent="dP87Y0F9Zu5sztYK6QaM-16">
          <mxGeometry x="1" relative="1" as="geometry" />
        </mxCell>
        <mxCell id="dP87Y0F9Zu5sztYK6QaM-19" value="" style="endArrow=none;html=1;rounded=1;entryX=1;entryY=0.5;entryDx=0;entryDy=0;exitX=0;exitY=0.5;exitDx=0;exitDy=0;fontSize=14;" edge="1" parent="1" source="dP87Y0F9Zu5sztYK6QaM-6" target="dP87Y0F9Zu5sztYK6QaM-10">
          <mxGeometry relative="1" as="geometry">
            <mxPoint x="600" y="360" as="sourcePoint" />
            <mxPoint x="610" y="209.5" as="targetPoint" />
          </mxGeometry>
        </mxCell>
        <mxCell id="dP87Y0F9Zu5sztYK6QaM-20" value="1" style="resizable=0;html=1;whiteSpace=wrap;align=right;verticalAlign=bottom;fontSize=14;rounded=1;" connectable="0" vertex="1" parent="dP87Y0F9Zu5sztYK6QaM-19">
          <mxGeometry x="1" relative="1" as="geometry">
            <mxPoint x="10" as="offset" />
          </mxGeometry>
        </mxCell>
        <mxCell id="dP87Y0F9Zu5sztYK6QaM-21" value="" style="endArrow=none;html=1;rounded=1;entryX=1;entryY=0.5;entryDx=0;entryDy=0;exitX=0;exitY=0;exitDx=0;exitDy=0;fontSize=14;" edge="1" parent="1" source="dP87Y0F9Zu5sztYK6QaM-25" target="dP87Y0F9Zu5sztYK6QaM-6">
          <mxGeometry relative="1" as="geometry">
            <mxPoint x="900" y="250" as="sourcePoint" />
            <mxPoint x="730" y="330" as="targetPoint" />
          </mxGeometry>
        </mxCell>
        <mxCell id="dP87Y0F9Zu5sztYK6QaM-23" value="" style="endArrow=none;html=1;rounded=1;exitX=1;exitY=0.5;exitDx=0;exitDy=0;entryX=0;entryY=0.5;entryDx=0;entryDy=0;fontSize=14;" edge="1" parent="1" source="dP87Y0F9Zu5sztYK6QaM-6" target="dP87Y0F9Zu5sztYK6QaM-24">
          <mxGeometry relative="1" as="geometry">
            <mxPoint x="780" y="270" as="sourcePoint" />
            <mxPoint x="890" y="130" as="targetPoint" />
          </mxGeometry>
        </mxCell>
        <mxCell id="dP87Y0F9Zu5sztYK6QaM-24" value="학과코드" style="ellipse;whiteSpace=wrap;html=1;align=center;fontStyle=4;fontSize=14;rounded=1;" vertex="1" parent="1">
          <mxGeometry x="863.5" y="125" width="87" height="40" as="geometry" />
        </mxCell>
        <mxCell id="dP87Y0F9Zu5sztYK6QaM-25" value="학과명" style="ellipse;whiteSpace=wrap;html=1;align=center;fontSize=14;rounded=1;" vertex="1" parent="1">
          <mxGeometry x="857" y="210" width="100" height="40" as="geometry" />
        </mxCell>
        <mxCell id="dP87Y0F9Zu5sztYK6QaM-27" value="학생" style="rounded=1;whiteSpace=wrap;html=1;fillColor=#fff2cc;fontSize=14;strokeColor=#d6b656;" vertex="1" parent="1">
          <mxGeometry x="690" y="470" width="120" height="60" as="geometry" />
        </mxCell>
        <mxCell id="dP87Y0F9Zu5sztYK6QaM-28" value="" style="endArrow=none;html=1;rounded=1;entryX=1;entryY=0.5;entryDx=0;entryDy=0;exitX=0;exitY=0;exitDx=0;exitDy=0;fontSize=14;" edge="1" parent="1" source="dP87Y0F9Zu5sztYK6QaM-31" target="dP87Y0F9Zu5sztYK6QaM-27">
          <mxGeometry relative="1" as="geometry">
            <mxPoint x="910" y="535" as="sourcePoint" />
            <mxPoint x="740" y="615" as="targetPoint" />
          </mxGeometry>
        </mxCell>
        <mxCell id="dP87Y0F9Zu5sztYK6QaM-29" value="" style="endArrow=none;html=1;rounded=1;exitX=1;exitY=0.5;exitDx=0;exitDy=0;entryX=0;entryY=0.5;entryDx=0;entryDy=0;fontSize=14;" edge="1" parent="1" source="dP87Y0F9Zu5sztYK6QaM-27" target="dP87Y0F9Zu5sztYK6QaM-30">
          <mxGeometry relative="1" as="geometry">
            <mxPoint x="790" y="555" as="sourcePoint" />
            <mxPoint x="900" y="415" as="targetPoint" />
          </mxGeometry>
        </mxCell>
        <mxCell id="dP87Y0F9Zu5sztYK6QaM-30" value="학번" style="ellipse;whiteSpace=wrap;html=1;align=center;fontStyle=4;fontSize=14;rounded=1;" vertex="1" parent="1">
          <mxGeometry x="903.5" y="410" width="87" height="40" as="geometry" />
        </mxCell>
        <mxCell id="dP87Y0F9Zu5sztYK6QaM-31" value="키" style="ellipse;whiteSpace=wrap;html=1;align=center;fontSize=14;rounded=1;" vertex="1" parent="1">
          <mxGeometry x="903.5" y="540" width="100" height="40" as="geometry" />
        </mxCell>
        <mxCell id="dP87Y0F9Zu5sztYK6QaM-32" value="" style="endArrow=none;html=1;rounded=1;entryX=1;entryY=0.5;entryDx=0;entryDy=0;exitX=0;exitY=0;exitDx=0;exitDy=0;fontSize=14;" edge="1" parent="1" source="dP87Y0F9Zu5sztYK6QaM-33" target="dP87Y0F9Zu5sztYK6QaM-27">
          <mxGeometry relative="1" as="geometry">
            <mxPoint x="1020" y="505" as="sourcePoint" />
            <mxPoint x="930" y="455" as="targetPoint" />
          </mxGeometry>
        </mxCell>
        <mxCell id="dP87Y0F9Zu5sztYK6QaM-33" value="이름" style="ellipse;whiteSpace=wrap;html=1;align=center;fontSize=14;rounded=1;" vertex="1" parent="1">
          <mxGeometry x="903.5" y="470" width="100" height="40" as="geometry" />
        </mxCell>
        <mxCell id="dP87Y0F9Zu5sztYK6QaM-34" value="소속" style="rhombus;whiteSpace=wrap;html=1;fillColor=#f8cecc;fontSize=14;rounded=1;" vertex="1" parent="1">
          <mxGeometry x="695" y="310" width="110" height="80" as="geometry" />
        </mxCell>
        <mxCell id="dP87Y0F9Zu5sztYK6QaM-35" value="" style="endArrow=none;html=1;rounded=1;exitX=0.5;exitY=0;exitDx=0;exitDy=0;entryX=0.5;entryY=1;entryDx=0;entryDy=0;fontSize=14;" edge="1" parent="1" target="dP87Y0F9Zu5sztYK6QaM-34" source="dP87Y0F9Zu5sztYK6QaM-27">
          <mxGeometry relative="1" as="geometry">
            <mxPoint x="640" y="340" as="sourcePoint" />
            <mxPoint x="794" y="349.5" as="targetPoint" />
          </mxGeometry>
        </mxCell>
        <mxCell id="dP87Y0F9Zu5sztYK6QaM-36" value="N" style="resizable=0;html=1;whiteSpace=wrap;align=right;verticalAlign=bottom;fontSize=14;rounded=1;" connectable="0" vertex="1" parent="dP87Y0F9Zu5sztYK6QaM-35">
          <mxGeometry x="1" relative="1" as="geometry">
            <mxPoint x="20" y="20" as="offset" />
          </mxGeometry>
        </mxCell>
        <mxCell id="dP87Y0F9Zu5sztYK6QaM-37" value="" style="endArrow=none;html=1;rounded=1;entryX=0.5;entryY=0;entryDx=0;entryDy=0;exitX=0.5;exitY=1;exitDx=0;exitDy=0;fontSize=14;" edge="1" parent="1" target="dP87Y0F9Zu5sztYK6QaM-34" source="dP87Y0F9Zu5sztYK6QaM-6">
          <mxGeometry relative="1" as="geometry">
            <mxPoint x="890" y="340" as="sourcePoint" />
            <mxPoint x="990" y="349.5" as="targetPoint" />
          </mxGeometry>
        </mxCell>
        <mxCell id="dP87Y0F9Zu5sztYK6QaM-38" value="1" style="resizable=0;html=1;whiteSpace=wrap;align=right;verticalAlign=bottom;fontSize=14;rounded=1;" connectable="0" vertex="1" parent="dP87Y0F9Zu5sztYK6QaM-37">
          <mxGeometry x="1" relative="1" as="geometry">
            <mxPoint x="20" as="offset" />
          </mxGeometry>
        </mxCell>
        <mxCell id="dP87Y0F9Zu5sztYK6QaM-40" value="강의" style="rhombus;whiteSpace=wrap;html=1;fillColor=#f8cecc;fontSize=14;rounded=1;" vertex="1" parent="1">
          <mxGeometry x="290" y="310" width="110" height="80" as="geometry" />
        </mxCell>
        <mxCell id="dP87Y0F9Zu5sztYK6QaM-41" value="" style="endArrow=none;html=1;rounded=1;exitX=0.5;exitY=1;exitDx=0;exitDy=0;entryX=0.5;entryY=0;entryDx=0;entryDy=0;fontSize=14;" edge="1" parent="1" target="dP87Y0F9Zu5sztYK6QaM-40" source="dP87Y0F9Zu5sztYK6QaM-3">
          <mxGeometry relative="1" as="geometry">
            <mxPoint x="230" y="375" as="sourcePoint" />
            <mxPoint x="384" y="384.5" as="targetPoint" />
          </mxGeometry>
        </mxCell>
        <mxCell id="dP87Y0F9Zu5sztYK6QaM-42" value="N" style="resizable=0;html=1;whiteSpace=wrap;align=right;verticalAlign=bottom;fontSize=14;rounded=1;" connectable="0" vertex="1" parent="dP87Y0F9Zu5sztYK6QaM-41">
          <mxGeometry x="1" relative="1" as="geometry">
            <mxPoint x="15" as="offset" />
          </mxGeometry>
        </mxCell>
        <mxCell id="dP87Y0F9Zu5sztYK6QaM-43" value="" style="endArrow=none;html=1;rounded=1;entryX=0.5;entryY=1;entryDx=0;entryDy=0;exitX=0.5;exitY=0;exitDx=0;exitDy=0;fontSize=14;" edge="1" parent="1" target="dP87Y0F9Zu5sztYK6QaM-40" source="dP87Y0F9Zu5sztYK6QaM-45">
          <mxGeometry relative="1" as="geometry">
            <mxPoint x="480" y="390" as="sourcePoint" />
            <mxPoint x="345" y="430" as="targetPoint" />
          </mxGeometry>
        </mxCell>
        <mxCell id="dP87Y0F9Zu5sztYK6QaM-44" value="1" style="resizable=0;html=1;whiteSpace=wrap;align=right;verticalAlign=bottom;fontSize=14;rounded=1;" connectable="0" vertex="1" parent="dP87Y0F9Zu5sztYK6QaM-43">
          <mxGeometry x="1" relative="1" as="geometry">
            <mxPoint x="15" y="20" as="offset" />
          </mxGeometry>
        </mxCell>
        <mxCell id="dP87Y0F9Zu5sztYK6QaM-45" value="과목" style="rounded=1;whiteSpace=wrap;html=1;fillColor=#fff2cc;fontSize=14;strokeColor=#d6b656;" vertex="1" parent="1">
          <mxGeometry x="285" y="470" width="120" height="60" as="geometry" />
        </mxCell>
        <mxCell id="dP87Y0F9Zu5sztYK6QaM-46" value="" style="endArrow=none;html=1;rounded=1;entryX=0;entryY=0.5;entryDx=0;entryDy=0;exitX=0.768;exitY=0.126;exitDx=0;exitDy=0;exitPerimeter=0;fontSize=14;" edge="1" parent="1" source="dP87Y0F9Zu5sztYK6QaM-49" target="dP87Y0F9Zu5sztYK6QaM-45">
          <mxGeometry relative="1" as="geometry">
            <mxPoint x="160" y="650" as="sourcePoint" />
            <mxPoint x="275.15" y="562.11" as="targetPoint" />
          </mxGeometry>
        </mxCell>
        <mxCell id="dP87Y0F9Zu5sztYK6QaM-47" value="" style="endArrow=none;html=1;rounded=1;exitX=0;exitY=0.5;exitDx=0;exitDy=0;fontSize=14;" edge="1" parent="1" source="dP87Y0F9Zu5sztYK6QaM-45" target="dP87Y0F9Zu5sztYK6QaM-48">
          <mxGeometry relative="1" as="geometry">
            <mxPoint x="375" y="615" as="sourcePoint" />
            <mxPoint x="485" y="475" as="targetPoint" />
          </mxGeometry>
        </mxCell>
        <mxCell id="dP87Y0F9Zu5sztYK6QaM-48" value="과목코드" style="ellipse;whiteSpace=wrap;html=1;align=center;fontStyle=4;fontSize=14;rounded=1;" vertex="1" parent="1">
          <mxGeometry x="133" y="430" width="87" height="40" as="geometry" />
        </mxCell>
        <mxCell id="dP87Y0F9Zu5sztYK6QaM-49" value="종료일일" style="ellipse;whiteSpace=wrap;html=1;align=center;fontSize=14;rounded=1;" vertex="1" parent="1">
          <mxGeometry x="130" y="580" width="100" height="40" as="geometry" />
        </mxCell>
        <mxCell id="dP87Y0F9Zu5sztYK6QaM-50" value="" style="endArrow=none;html=1;rounded=1;entryX=0;entryY=0.5;entryDx=0;entryDy=0;fontSize=14;" edge="1" parent="1" source="dP87Y0F9Zu5sztYK6QaM-51" target="dP87Y0F9Zu5sztYK6QaM-45">
          <mxGeometry relative="1" as="geometry">
            <mxPoint x="605" y="565" as="sourcePoint" />
            <mxPoint x="295" y="540" as="targetPoint" />
          </mxGeometry>
        </mxCell>
        <mxCell id="dP87Y0F9Zu5sztYK6QaM-51" value="과목명" style="ellipse;whiteSpace=wrap;html=1;align=center;fontSize=14;rounded=1;" vertex="1" parent="1">
          <mxGeometry x="126.5" y="510" width="100" height="40" as="geometry" />
        </mxCell>
        <mxCell id="dP87Y0F9Zu5sztYK6QaM-58" value="수강" style="rhombus;whiteSpace=wrap;html=1;fillColor=#f8cecc;fontSize=14;rounded=1;" vertex="1" parent="1">
          <mxGeometry x="500" y="460" width="110" height="80" as="geometry" />
        </mxCell>
        <mxCell id="dP87Y0F9Zu5sztYK6QaM-67" value="" style="endArrow=none;html=1;rounded=1;entryX=0;entryY=0.5;entryDx=0;entryDy=0;exitX=1;exitY=0;exitDx=0;exitDy=0;fontSize=14;" edge="1" parent="1" source="dP87Y0F9Zu5sztYK6QaM-70" target="dP87Y0F9Zu5sztYK6QaM-3">
          <mxGeometry relative="1" as="geometry">
            <mxPoint x="160" y="265" as="sourcePoint" />
            <mxPoint x="70" y="215" as="targetPoint" />
          </mxGeometry>
        </mxCell>
        <mxCell id="dP87Y0F9Zu5sztYK6QaM-68" value="" style="endArrow=none;html=1;rounded=1;exitX=0;exitY=0.5;exitDx=0;exitDy=0;entryX=0;entryY=0.5;entryDx=0;entryDy=0;fontSize=14;" edge="1" parent="1" target="dP87Y0F9Zu5sztYK6QaM-69" source="dP87Y0F9Zu5sztYK6QaM-3">
          <mxGeometry relative="1" as="geometry">
            <mxPoint x="70" y="215" as="sourcePoint" />
            <mxPoint x="150" y="145" as="targetPoint" />
          </mxGeometry>
        </mxCell>
        <mxCell id="dP87Y0F9Zu5sztYK6QaM-69" value="교수코드" style="ellipse;whiteSpace=wrap;html=1;align=center;fontStyle=4;fontSize=14;rounded=1;" vertex="1" parent="1">
          <mxGeometry x="136.5" y="150" width="87" height="40" as="geometry" />
        </mxCell>
        <mxCell id="dP87Y0F9Zu5sztYK6QaM-70" value="교수이름" style="ellipse;whiteSpace=wrap;html=1;align=center;fontSize=14;rounded=1;" vertex="1" parent="1">
          <mxGeometry x="140" y="220" width="100" height="40" as="geometry" />
        </mxCell>
        <mxCell id="dP87Y0F9Zu5sztYK6QaM-71" value="시작일" style="ellipse;whiteSpace=wrap;html=1;align=center;fontSize=14;rounded=1;" vertex="1" parent="1">
          <mxGeometry x="207" y="640" width="100" height="40" as="geometry" />
        </mxCell>
        <mxCell id="dP87Y0F9Zu5sztYK6QaM-72" value="" style="endArrow=none;html=1;rounded=1;entryX=0.188;entryY=1.016;entryDx=0;entryDy=0;entryPerimeter=0;fontSize=14;" edge="1" parent="1" source="dP87Y0F9Zu5sztYK6QaM-71" target="dP87Y0F9Zu5sztYK6QaM-45">
          <mxGeometry relative="1" as="geometry">
            <mxPoint x="245" y="640" as="sourcePoint" />
            <mxPoint x="370" y="544" as="targetPoint" />
          </mxGeometry>
        </mxCell>
        <mxCell id="dP87Y0F9Zu5sztYK6QaM-76" value="" style="endArrow=none;html=1;rounded=1;entryX=1;entryY=0.5;entryDx=0;entryDy=0;exitX=0;exitY=0.5;exitDx=0;exitDy=0;fontSize=14;" edge="1" parent="1" source="dP87Y0F9Zu5sztYK6QaM-27" target="dP87Y0F9Zu5sztYK6QaM-58">
          <mxGeometry relative="1" as="geometry">
            <mxPoint x="570.26" y="630" as="sourcePoint" />
            <mxPoint x="730.26" y="630" as="targetPoint" />
          </mxGeometry>
        </mxCell>
        <mxCell id="dP87Y0F9Zu5sztYK6QaM-77" value="N" style="resizable=0;html=1;whiteSpace=wrap;align=right;verticalAlign=bottom;fontSize=14;rounded=1;" connectable="0" vertex="1" parent="dP87Y0F9Zu5sztYK6QaM-76">
          <mxGeometry x="1" relative="1" as="geometry">
            <mxPoint x="20" as="offset" />
          </mxGeometry>
        </mxCell>
        <mxCell id="dP87Y0F9Zu5sztYK6QaM-80" value="" style="endArrow=none;html=1;rounded=1;entryX=0;entryY=0.5;entryDx=0;entryDy=0;exitX=1;exitY=0.5;exitDx=0;exitDy=0;fontSize=14;" edge="1" parent="1" source="dP87Y0F9Zu5sztYK6QaM-45" target="dP87Y0F9Zu5sztYK6QaM-58">
          <mxGeometry relative="1" as="geometry">
            <mxPoint x="490" y="565" as="sourcePoint" />
            <mxPoint x="360" y="575" as="targetPoint" />
          </mxGeometry>
        </mxCell>
        <mxCell id="dP87Y0F9Zu5sztYK6QaM-81" value="M" style="resizable=0;html=1;whiteSpace=wrap;align=right;verticalAlign=bottom;fontSize=14;rounded=1;" connectable="0" vertex="1" parent="dP87Y0F9Zu5sztYK6QaM-80">
          <mxGeometry x="1" relative="1" as="geometry">
            <mxPoint x="-9" y="-3" as="offset" />
          </mxGeometry>
        </mxCell>
      </root>
    </mxGraphModel>
  </diagram>
</mxfile>
